<svg xmlns="http://www.w3.org/2000/svg" viewBox="0 0 452.85 392.35"><defs><style>.cls-1,.cls-10{fill:#ff9271;}.cls-1{opacity:0.18;}.cls-2{fill:#ff4500;opacity:0.28;}.cls-3{fill:#603813;}.cls-4{fill:#1a1a1a;}.cls-5{fill:gray;}.cls-6{fill:#ccc;}.cls-7{fill:#e6e6e6;}.cls-8{fill:#42210b;}.cls-9{fill:#ff9a75;}.cls-11{fill:#754c24;}.cls-12{fill:#b3b3b3;}.cls-13{fill:#333;}</style></defs><title>Asset 13</title><g id="Layer_2" data-name="Layer 2"><g id="Layer_1-2" data-name="Layer 1"><path class="cls-1" d="M125.3,47.35c-22,6.67-22.65,2.46-46,10-24.51,7.91-52.95,17.1-68,39-23.94,34.85-3.2,86.22,2,98,24.84,56.24,66.91,50.57,84,104,10.73,33.54-.59,52.26,18,71,12.48,12.59,29,15.06,62,20a297.4,297.4,0,0,0,77,1c24.57-2.79,21.93-5.42,51-9,37.38-4.6,44.62-.6,63-7,10.07-3.51,34.92-12.07,46-33,20.16-38.07-25.26-79.68-3-119,9.43-16.66,18.85-11.44,27-29,15.19-32.73-16.77-52.48-4-90,6.67-19.61,21.59-32.39,18-55-.58-3.64-1.26-7.66-4-12-8.53-13.5-25.78-12.25-51-18-32.57-7.43-31.37-15.81-53-18-23.75-2.4-28.45,8.26-56,12-39.78,5.39-43.61-13.61-76-9C176.81,8.4,176,32,125.3,47.35Z"/><ellipse class="cls-2" cx="348.3" cy="194.85" rx="7" ry="112.5"/><ellipse class="cls-2" cx="296.3" cy="364.85" rx="80" ry="9.5"/><rect class="cls-3" x="318.36" y="247.84" width="9" height="28" transform="translate(-4.26 518.34) rotate(-77.14)"/><rect class="cls-4" x="281.45" y="219" width="15" height="69.72" rx="5.87" transform="translate(-22.85 479.07) rotate(-77.14)"/><rect x="333.48" y="257.79" width="9" height="15" transform="translate(4.12 535.75) rotate(-77.14)"/><path class="cls-5" d="M337,271.61h20a.84.84,0,0,1,.84.84v7.95a0,0,0,0,1,0,0H328.25a0,0,0,0,1,0,0v0A8.79,8.79,0,0,1,337,271.61Z" transform="translate(-2.37 549.05) rotate(-77.14)"/><path class="cls-6" d="M333.74,275.58h29.58a.48.48,0,0,1,.48.48v1.44a.84.84,0,0,1-.84.84H334.68a.94.94,0,0,1-.94-.94v-1.83A0,0,0,0,1,333.74,275.58Z" transform="translate(1.14 555.35) rotate(-77.14)"/><circle class="cls-7" cx="344.8" cy="266.85" r="1.5"/><path class="cls-4" d="M280.88,196.32h3.92a5.28,5.28,0,0,1,5.28,5.28V261a5.28,5.28,0,0,1-5.28,5.28h-2.31a6.89,6.89,0,0,1-6.89-6.89V201.6a5.28,5.28,0,0,1,5.28-5.28Z" transform="translate(321.54 -132.01) rotate(56.81)"/><path class="cls-8" d="M301.72,119.59h5.79a0,0,0,0,1,0,0v34.54a0,0,0,0,1,0,0h-10a0,0,0,0,1,0,0V123.8A4.21,4.21,0,0,1,301.72,119.59Z" transform="translate(383.25 458.92) rotate(-128.42)"/><rect class="cls-8" x="270.33" y="107.71" width="9.04" height="47.51" transform="translate(9.91 281.91) rotate(-55.15)"/><rect class="cls-8" x="238.26" y="104.01" width="23.09" height="14.12" rx="7.06" transform="translate(330.97 372.13) rotate(-131.25)"/><path class="cls-9" d="M315.74,109.33h3a3.22,3.22,0,0,1,3.22,3.22v28.88a0,0,0,0,1,0,0H311.06a.14.14,0,0,1-.14-.14V114.15a4.82,4.82,0,0,1,4.82-4.82Z" transform="translate(218.06 -200.47) rotate(51.58)"/><path class="cls-10" d="M312.94,101.45h11.64a11.65,11.65,0,0,1,11.65,11.65v72.35a4,4,0,0,1-4,4h-28a4,4,0,0,1-4-4V114.16a12.71,12.71,0,0,1,12.71-12.71Z" transform="translate(42.07 -69.4) rotate(13.32)"/><rect class="cls-3" x="317.79" y="82.15" width="9" height="26" rx="2.32" transform="translate(-13.16 75.2) rotate(-13.05)"/><rect class="cls-8" x="293.31" y="65.46" width="5" height="8" rx="1.54" transform="translate(-8.04 68.56) rotate(-13.05)"/><path class="cls-11" d="M327.84,83.6,312,87.27a11.26,11.26,0,0,1-13.5-8.42l-7-30.33a6.62,6.62,0,0,1,4.95-7.94L320.33,35a6.86,6.86,0,0,1,8.22,5.13L335.69,71A10.49,10.49,0,0,1,327.84,83.6Z"/><path d="M296.05,26h23.45a8,8,0,0,1,8,8V45.64A4.37,4.37,0,0,1,323.15,50H291.89a4.37,4.37,0,0,1-4.37-4.37V34.55A8.54,8.54,0,0,1,296.05,26Z" transform="translate(-0.64 70.39) rotate(-13.05)"/><rect x="301.43" y="48.76" width="2" height="35" rx="1" transform="translate(-7.15 69.97) rotate(-13.04)"/><path class="cls-3" d="M294.72,134.59h5.79a0,0,0,0,1,0,0v34.54a0,0,0,0,1,0,0h-10a0,0,0,0,1,0,0V138.8A4.21,4.21,0,0,1,294.72,134.59Z" transform="translate(360.14 477.76) rotate(-128.42)"/><path class="cls-9" d="M308.74,124.33h3a3.22,3.22,0,0,1,3.22,3.22v28.88a0,0,0,0,1,0,0H304.06a.14.14,0,0,1-.14-.14V129.15a4.82,4.82,0,0,1,4.82-4.82Z" transform="translate(227.16 -189.3) rotate(51.58)"/><circle cx="298.3" cy="62.35" r="1"/><rect class="cls-3" x="263.33" y="122.71" width="9.04" height="47.51" transform="translate(-5.4 282.59) rotate(-55.15)"/><path d="M244.06,91.92h1.05a0,0,0,0,1,0,0V129.4a0,0,0,0,1,0,0h-1.25a0,0,0,0,1,0,0V92.11a.19.19,0,0,1,.19-.19Z" transform="translate(-6.64 205.29) rotate(-45)"/><rect class="cls-12" x="239.12" y="94.82" width="6.36" height="36.06" transform="translate(-8.83 204.38) rotate(-45)"/><path d="M240.06,95.92h1.05a0,0,0,0,1,0,0V133.4a0,0,0,0,1,0,0h-1.25a0,0,0,0,1,0,0V96.11A.19.19,0,0,1,240.06,95.92Z" transform="translate(-10.64 203.63) rotate(-45)"/><rect x="228.75" y="96.76" width="1.25" height="6.33" rx="0.46" transform="translate(147.1 -136.35) rotate(47.26)"/><rect x="254.9" y="122.89" width="1.25" height="6.36" rx="0.41" transform="translate(163.99 -143.76) rotate(45)"/><rect class="cls-3" x="231.26" y="119.01" width="23.09" height="14.12" rx="7.06" transform="translate(255.02 399.38) rotate(-120)"/><path class="cls-13" d="M288.8,183.11h36a0,0,0,0,1,0,0v28.43a11.57,11.57,0,0,1-11.57,11.57H298.85a10.05,10.05,0,0,1-10.05-10.05V183.11a0,0,0,0,1,0,0Z" transform="translate(23.54 -31.72) rotate(6.15)"/><path class="cls-13" d="M292.88,208.32h3.92a5.28,5.28,0,0,1,5.28,5.28V273a5.28,5.28,0,0,1-5.28,5.28h-2.31a6.89,6.89,0,0,1-6.89-6.89V213.6a5.28,5.28,0,0,1,5.28-5.28Z" transform="translate(161.15 -114.82) rotate(30)"/><rect class="cls-3" x="277.3" y="318.35" width="9" height="28"/><rect class="cls-13" x="274.53" y="262.65" width="15" height="69.72" rx="5.87"/><rect x="277.3" y="340.35" width="9" height="15"/><path class="cls-5" d="M266.21,354.26h20a.84.84,0,0,1,.84.84v7.95a0,0,0,0,1,0,0H257.42a0,0,0,0,1,0,0v0A8.79,8.79,0,0,1,266.21,354.26Z" transform="translate(12.76 -9.34) rotate(2.01)"/><path class="cls-6" d="M257.36,363.06h29.58a.48.48,0,0,1,.48.48V365a.84.84,0,0,1-.84.84H258.29a.94.94,0,0,1-.94-.94v-1.83A0,0,0,0,1,257.36,363.06Z" transform="translate(12.96 -9.34) rotate(2.01)"/><circle class="cls-7" cx="282.8" cy="358.85" r="1.5"/></g></g></svg>