<svg xmlns="http://www.w3.org/2000/svg" viewBox="0 0 439.11 355.58"><defs><style>.cls-1,.cls-7{fill:#ff9271;}.cls-1{opacity:0.18;}.cls-2,.cls-8{fill:#ff4500;}.cls-2{opacity:0.28;}.cls-3{fill:#333;}.cls-4{fill:#42210b;}.cls-5{fill:#603813;}.cls-6{fill:#ff9a75;}.cls-9{fill:#754c24;}.cls-10{fill:#a67c52;}.cls-11{fill:#8c6239;}.cls-12{fill:#b3b3b3;}.cls-13{fill:#4d4d4d;}</style></defs><title>Asset 12</title><g id="Layer_2" data-name="Layer 2"><g id="Layer_1-2" data-name="Layer 1"><path class="cls-1" d="M149.48,46.58c-28.17-.59-31.34-22.36-62-25-28.07-2.42-60,12.86-76,38-24.32,38.25-3.26,86.09,2,98,24.84,56.24,66.92,50.57,84,104,10.73,33.54-.59,52.25,18,71,12.49,12.59,29,15.06,62,20a297.43,297.43,0,0,0,77,1c24.57-2.79,21.93-5.42,51-9,37.38-4.6,44.62-.6,63-7,10.08-3.51,34.92-12.08,46-33,20.17-38.07-25.26-79.68-3-119,9.88-17.44,23.73-13.93,27-29,5.31-24.45-24.38-58-43-79-.46-.53-25.22-28.48-19-37,1.15-1.58,3.74-3,4-6,.32-3.66-3.08-7.2-6-9-6.71-4.14-11.63,2.12-19-1-2.43-1-2.42-1.9-11-12-9-10.63-10.59-11.51-12-12-2.49-.87-8.84-2-20,7-9.2-4.4-16.29-4.6-21-4-15,1.9-22.92,14-37,14a56.11,56.11,0,0,1-12.2-1.15c-5.86-1.22-8-2.95-16.8-2.85C188.84,14,180,47.21,149.48,46.58Z"/><ellipse class="cls-2" cx="239.48" cy="334.08" rx="80" ry="9.5"/><rect class="cls-3" x="277.08" y="305.41" width="9.17" height="32.1" transform="translate(690.88 198.11) rotate(114.45)"/><path class="cls-4" d="M262.18,292.43h2.54a1.63,1.63,0,0,1,1.63,1.63v73.43a1.63,1.63,0,0,1-1.63,1.63H258a1.63,1.63,0,0,1-1.63-1.63V298.26a5.83,5.83,0,0,1,5.83-5.83Z" transform="translate(561.13 34.38) rotate(83.64)"/><rect class="cls-4" x="222.2" y="326.58" width="12" height="17" rx="4.58" transform="translate(442.79 679.03) rotate(-177.7)"/><rect class="cls-3" x="187.43" y="304.41" width="9.17" height="32.1" transform="translate(404.27 13.03) rotate(65.55)"/><path class="cls-5" d="M278.47,242.17h5.79a0,0,0,0,1,0,0v34.54a0,0,0,0,1,0,0h-10a0,0,0,0,1,0,0V246.37A4.21,4.21,0,0,1,278.47,242.17Z" transform="translate(660.4 264.24) rotate(137.83)"/><rect class="cls-6" x="258.5" y="226.56" width="11.05" height="32.1" transform="translate(622.57 245.17) rotate(137.83)"/><rect class="cls-5" x="271.17" y="263.64" width="9.04" height="47.51" transform="translate(363.35 675.87) rotate(-148.91)"/><path class="cls-5" d="M178.39,243.17h10a0,0,0,0,1,0,0v34.54a0,0,0,0,1,0,0h-5.79a4.21,4.21,0,0,1-4.21-4.21V243.17a0,0,0,0,1,0,0Z" transform="translate(222.31 -55.7) rotate(42.17)"/><path class="cls-7" d="M216.19,218.58h32.64a11.65,11.65,0,0,1,11.65,11.65v72.35a4,4,0,0,1-4,4h-49a4,4,0,0,1-4-4V231.29A12.71,12.71,0,0,1,216.19,218.58Z"/><rect class="cls-8" x="204.48" y="242.58" width="55" height="6"/><rect class="cls-6" x="193.1" y="227.56" width="11.05" height="32.1" transform="translate(214.96 -70.29) rotate(42.17)"/><rect class="cls-5" x="182.43" y="264.64" width="9.04" height="47.51" transform="translate(-122.08 137.98) rotate(-31.09)"/><rect class="cls-5" x="227.48" y="200.58" width="9" height="26" rx="4.5"/><rect class="cls-5" x="249.48" y="174.58" width="5" height="10" rx="1.54"/><rect class="cls-5" x="210.48" y="174.58" width="5" height="10" rx="1.54"/><path d="M217.65,152.58h30.19a3.64,3.64,0,0,1,3.64,3.64v20.36a0,0,0,0,1,0,0h-38a0,0,0,0,1,0,0V156.75A4.17,4.17,0,0,1,217.65,152.58Z"/><path class="cls-9" d="M241,207.58H224.73a11.25,11.25,0,0,1-11.25-11.25V165.19a6.61,6.61,0,0,1,6.62-6.61h24.53a6.84,6.84,0,0,1,6.85,6.85v31.66A10.49,10.49,0,0,1,241,207.58Z"/><rect x="244.48" y="157.58" width="2" height="35" rx="1"/><rect x="240.48" y="157.58" width="2" height="35" rx="1"/><circle cx="222.48" cy="181.58" r="1"/><rect class="cls-10" x="229.48" y="185.58" width="5" height="8" rx="1.54"/><rect class="cls-11" x="227.48" y="197.58" width="9" height="2" rx="0.66"/><rect class="cls-5" x="192.12" y="306.66" width="23.09" height="14.12" rx="7.06" transform="translate(281.49 -52.12) rotate(45)"/><rect class="cls-5" x="249.66" y="304.66" width="23.09" height="14.12" rx="7.06" transform="translate(666.32 347.45) rotate(135)"/><rect class="cls-12" x="186.48" y="268.58" width="92" height="58" rx="6.35"/><circle class="cls-13" cx="231.98" cy="298.08" r="7.5"/><path class="cls-13" d="M187.36,323.58H278a.46.46,0,0,1,.46.46v1.66a.88.88,0,0,1-.88.88H187.36a.88.88,0,0,1-.88-.88v-1.24A.88.88,0,0,1,187.36,323.58Z"/><path class="cls-5" d="M209,291.43h6.75a1.63,1.63,0,0,1,1.63,1.63v73.43a1.63,1.63,0,0,1-1.63,1.63h-2.54a5.83,5.83,0,0,1-5.83-5.83V293.05a1.63,1.63,0,0,1,1.63-1.63Z" transform="translate(563.59 155.29) rotate(96.36)"/><rect class="cls-5" x="239.48" y="325.58" width="12" height="17" rx="4.58" transform="translate(-13.18 10.1) rotate(-2.3)"/></g></g></svg>