<svg xmlns="http://www.w3.org/2000/svg" viewBox="0 0 452.85 392.35"><defs><style>.cls-1,.cls-5{fill:#ff9271;}.cls-1{opacity:0.18;}.cls-2,.cls-9{fill:#ff4500;}.cls-2{opacity:0.28;}.cls-3{fill:#603813;}.cls-4{fill:#ff9a75;}.cls-6{fill:#754c24;}.cls-7{fill:#a67c52;}.cls-8{fill:#f2f2f2;}.cls-10{fill:#333;}.cls-11{fill:gray;}.cls-12{fill:#ccc;}.cls-13{fill:#8c6239;}</style></defs><title>Asset 10</title><g id="Layer_2" data-name="Layer 2"><g id="Layer_1-2" data-name="Layer 1"><path class="cls-1" d="M125.3,47.35c-22,6.67-22.65,2.46-46,10-24.51,7.91-52.95,17.1-68,39-23.94,34.85-3.2,86.22,2,98,24.84,56.24,66.91,50.57,84,104,10.73,33.54-.59,52.26,18,71,12.48,12.59,29,15.06,62,20a297.4,297.4,0,0,0,77,1c24.57-2.79,21.93-5.42,51-9,37.38-4.6,44.62-.6,63-7,10.07-3.51,34.92-12.07,46-33,20.16-38.07-25.26-79.68-3-119,9.43-16.66,18.85-11.44,27-29,15.19-32.73-16.77-52.48-4-90,6.67-19.61,21.59-32.39,18-55-.58-3.64-1.26-7.66-4-12-8.53-13.5-25.78-12.25-51-18-32.57-7.43-31.37-15.81-53-18-23.75-2.4-28.45,8.26-56,12-39.78,5.39-43.61-13.61-76-9C176.81,8.4,176,32,125.3,47.35Z"/><ellipse class="cls-2" cx="257.3" cy="372.85" rx="80" ry="9.5"/><path class="cls-3" d="M301.2,91.94h10a0,0,0,0,1,0,0v34.54a0,0,0,0,1,0,0h-5.79a4.21,4.21,0,0,1-4.21-4.21V91.94A0,0,0,0,1,301.2,91.94Z" transform="translate(267.78 432.02) rotate(-102.84)"/><rect class="cls-4" x="278.92" y="98.33" width="11.05" height="32.1" transform="translate(332.74 -188.37) rotate(77.16)"/><path class="cls-3" d="M202.2,124.94h10a0,0,0,0,1,0,0v34.54a0,0,0,0,1,0,0h-5.79a4.21,4.21,0,0,1-4.21-4.21V124.94A0,0,0,0,1,202.2,124.94Z" transform="translate(149.1 -102.29) rotate(42.17)"/><rect class="cls-4" x="214.92" y="111.33" width="11.05" height="32.1" transform="translate(142.57 -115.02) rotate(42.17)"/><rect class="cls-3" x="270.3" y="324.35" width="9" height="28"/><rect x="228.3" y="349.35" width="9" height="15"/><rect class="cls-3" x="228.3" y="322.35" width="9" height="28"/><path class="cls-5" d="M238,102.35h32.64A11.65,11.65,0,0,1,282.3,114v72.35a4,4,0,0,1-4,4h-49a4,4,0,0,1-4-4V115.06A12.71,12.71,0,0,1,238,102.35Z"/><rect class="cls-3" x="249.3" y="83.35" width="9" height="26" rx="4.5"/><rect class="cls-3" x="270.3" y="56.35" width="5" height="10" rx="1.54"/><rect class="cls-3" x="231.3" y="56.35" width="5" height="10" rx="1.54"/><path d="M238.47,34.35h30.19A3.64,3.64,0,0,1,272.3,38V58.35a0,0,0,0,1,0,0h-38a0,0,0,0,1,0,0V38.52A4.17,4.17,0,0,1,238.47,34.35Z"/><path class="cls-6" d="M261.81,89.35H245.55A11.25,11.25,0,0,1,234.3,78.1V47a6.61,6.61,0,0,1,6.61-6.61h24.54a6.85,6.85,0,0,1,6.85,6.85V78.86A10.49,10.49,0,0,1,261.81,89.35Z"/><rect x="265.3" y="39.35" width="2" height="35" rx="1"/><rect x="261.3" y="39.35" width="2" height="35" rx="1"/><circle cx="243.3" cy="59.35" r="1"/><rect class="cls-7" x="250.3" y="63.35" width="5" height="8" rx="1.54"/><rect class="cls-8" x="248.3" y="75.35" width="9" height="3" rx="1.5"/><rect class="cls-9" x="226.3" y="126.35" width="55" height="6"/><rect class="cls-10" x="225.3" y="187.35" width="57" height="27" rx="0.73"/><ellipse class="cls-10" cx="254.3" cy="204.35" rx="28" ry="17"/><rect class="cls-10" x="225.3" y="207.35" width="15" height="137" rx="5.28"/><rect class="cls-10" x="267.3" y="207.35" width="15" height="137" rx="4.12"/><path class="cls-11" d="M232.75,359.8h0a9.55,9.55,0,0,1,9.55,9.55v0a0,0,0,0,1,0,0h-18a0,0,0,0,1,0,0v-1.1a8.45,8.45,0,0,1,8.45-8.45Z"/><path class="cls-12" d="M224.3,369.35h18a0,0,0,0,1,0,0v2.16a.84.84,0,0,1-.84.84H225.24a.94.94,0,0,1-.94-.94v-2.06A0,0,0,0,1,224.3,369.35Z"/><rect x="270.3" y="349.35" width="9" height="15"/><path class="cls-11" d="M274.75,359.8h0a9.55,9.55,0,0,1,9.55,9.55v0a0,0,0,0,1,0,0h-18a0,0,0,0,1,0,0v-1.1A8.45,8.45,0,0,1,274.75,359.8Z"/><path class="cls-12" d="M266.3,369.35h18a0,0,0,0,1,0,0v2.16a.84.84,0,0,1-.84.84H267.24a.94.94,0,0,1-.94-.94v-2.06A0,0,0,0,1,266.3,369.35Z"/><rect class="cls-3" x="206.25" y="146.41" width="9.04" height="47.51" transform="matrix(0.86, -0.52, 0.52, 0.86, -57.6, 133.3)"/><rect class="cls-3" x="217.94" y="189.44" width="23.09" height="14.12" rx="7.06" transform="translate(206.16 -104.72) rotate(45)"/><rect class="cls-10" x="226.28" y="196.42" width="17.36" height="16.15" transform="translate(307.71 -98.38) rotate(62.47)"/><rect class="cls-3" x="317.25" y="60.41" width="9.04" height="47.51" transform="translate(20.97 -57.75) rotate(10.6)"/><rect class="cls-13" x="316.94" y="50.44" width="23.09" height="14.12" rx="7.06" transform="translate(542.51 -198.23) rotate(120)"/><rect class="cls-13" x="314.48" y="52.23" width="12.48" height="7.03" rx="3.52" transform="translate(133.36 -210.46) rotate(45)"/><path d="M230.31,190.78h0a1.86,1.86,0,0,1,1.86,1.86v13a0,0,0,0,1,0,0h-2.45a0,0,0,0,1,0,0V191.37A.6.6,0,0,1,230.31,190.78Z" transform="translate(299.96 -98.2) rotate(62.47)"/><path d="M273.13,188.78h2.45a0,0,0,0,1,0,0v13a1.86,1.86,0,0,1-1.86,1.86h0a.6.6,0,0,1-.6-.6V188.78a0,0,0,0,1,0,0Z" transform="translate(575.14 43.58) rotate(117.53)"/></g></g></svg>