<svg xmlns="http://www.w3.org/2000/svg" viewBox="0 0 160.48 348"><defs><style>.cls-1,.cls-8{fill:#ff4500;}.cls-1{opacity:0.47;}.cls-2{fill:#603813;}.cls-3{fill:#ff9a75;}.cls-4{fill:#ff9271;}.cls-5{fill:#754c24;}.cls-6{fill:#a67c52;}.cls-7{fill:#f2f2f2;}.cls-9{fill:#333;}.cls-10{fill:gray;}.cls-11{fill:#ccc;}.cls-12{fill:#8c6239;}</style></defs><title>Asset 6</title><g id="Layer_2" data-name="Layer 2"><g id="Layer_1-2" data-name="Layer 1"><ellipse class="cls-1" cx="80" cy="338.5" rx="80" ry="9.5"/><path class="cls-2" d="M123.9,57.59h10a0,0,0,0,1,0,0V92.13a0,0,0,0,1,0,0h-5.79a4.21,4.21,0,0,1-4.21-4.21V57.59a0,0,0,0,1,0,0Z" transform="translate(84.57 217.18) rotate(-102.84)"/><rect class="cls-3" x="101.62" y="63.98" width="11.05" height="32.1" transform="translate(161.36 -42.22) rotate(77.16)"/><path class="cls-2" d="M24.9,90.59h10a0,0,0,0,1,0,0v34.54a0,0,0,0,1,0,0H29.11a4.21,4.21,0,0,1-4.21-4.21V90.59A0,0,0,0,1,24.9,90.59Z" transform="translate(80.15 7.84) rotate(42.17)"/><rect class="cls-3" x="37.62" y="76.98" width="11.05" height="32.1" transform="translate(73.62 -4.88) rotate(42.17)"/><rect class="cls-2" x="93" y="290" width="9" height="28"/><rect x="51" y="315" width="9" height="15"/><rect class="cls-2" x="51" y="288" width="9" height="28"/><path class="cls-4" d="M60.71,68H93.35A11.65,11.65,0,0,1,105,79.65V152a4,4,0,0,1-4,4H52a4,4,0,0,1-4-4V80.71A12.71,12.71,0,0,1,60.71,68Z"/><rect class="cls-2" x="72" y="49" width="9" height="26" rx="4.5"/><rect class="cls-2" x="93" y="22" width="5" height="10" rx="1.54"/><rect class="cls-2" x="54" y="22" width="5" height="10" rx="1.54"/><path d="M61.17,0H91.36A3.64,3.64,0,0,1,95,3.64V24a0,0,0,0,1,0,0H57a0,0,0,0,1,0,0V4.17A4.17,4.17,0,0,1,61.17,0Z"/><path class="cls-5" d="M84.51,55H68.25A11.25,11.25,0,0,1,57,43.75V12.61A6.61,6.61,0,0,1,63.61,6H88.15A6.85,6.85,0,0,1,95,12.85V44.51A10.49,10.49,0,0,1,84.51,55Z"/><rect x="88" y="5" width="2" height="35" rx="1"/><rect x="84" y="5" width="2" height="35" rx="1"/><circle cx="66" cy="25" r="1"/><rect class="cls-6" x="73" y="29" width="5" height="8" rx="1.54"/><rect class="cls-7" x="71" y="41" width="9" height="3" rx="1.5"/><rect class="cls-8" x="49" y="92" width="55" height="6"/><rect class="cls-9" x="48" y="153" width="57" height="27" rx="0.73"/><ellipse class="cls-9" cx="77" cy="170" rx="28" ry="17"/><rect class="cls-9" x="48" y="173" width="15" height="137" rx="5.28"/><rect class="cls-9" x="90" y="173" width="15" height="137" rx="4.12"/><path class="cls-10" d="M55.45,325.45h0A9.55,9.55,0,0,1,65,335v0a0,0,0,0,1,0,0H47a0,0,0,0,1,0,0v-1.1A8.45,8.45,0,0,1,55.45,325.45Z"/><path class="cls-11" d="M47,335H65a0,0,0,0,1,0,0v2.16a.84.84,0,0,1-.84.84H47.94a.94.94,0,0,1-.94-.94V335a0,0,0,0,1,0,0Z"/><rect x="93" y="315" width="9" height="15"/><path class="cls-10" d="M97.45,325.45h0A9.55,9.55,0,0,1,107,335v0a0,0,0,0,1,0,0H89a0,0,0,0,1,0,0v-1.1A8.45,8.45,0,0,1,97.45,325.45Z"/><path class="cls-11" d="M89,335h18a0,0,0,0,1,0,0v2.16a.84.84,0,0,1-.84.84H89.94a.94.94,0,0,1-.94-.94V335A0,0,0,0,1,89,335Z"/><rect class="cls-2" x="28.95" y="112.06" width="9.04" height="47.51" transform="matrix(0.86, -0.52, 0.52, 0.86, -65.33, 36.8)"/><rect class="cls-2" x="40.64" y="155.09" width="23.09" height="14.12" rx="7.06" transform="translate(129.94 10.59) rotate(45)"/><rect class="cls-9" x="48.99" y="162.08" width="17.36" height="16.15" transform="translate(181.9 40.38) rotate(62.47)"/><rect class="cls-2" x="139.95" y="26.06" width="9.04" height="47.51" transform="translate(11.63 -25.72) rotate(10.6)"/><rect class="cls-12" x="139.64" y="16.09" width="23.09" height="14.12" rx="7.06" transform="translate(246.82 -96.21) rotate(120)"/><rect class="cls-12" x="137.18" y="17.88" width="12.48" height="7.03" rx="3.52" transform="translate(57.14 -95.15) rotate(45)"/><path d="M53,156.43h0a1.86,1.86,0,0,1,1.86,1.86v13a0,0,0,0,1,0,0H52.41a0,0,0,0,1,0,0V157A.6.6,0,0,1,53,156.43Z" transform="translate(174.14 40.55) rotate(62.47)"/><path d="M95.83,154.43h2.45a0,0,0,0,1,0,0v13a1.86,1.86,0,0,1-1.86,1.86h0a.6.6,0,0,1-.6-.6V154.43a0,0,0,0,1,0,0Z" transform="translate(285.43 150.58) rotate(117.53)"/></g></g></svg>