<svg xmlns="http://www.w3.org/2000/svg" viewBox="0 0 160 350.94"><defs><style>.cls-1{fill:#ff4500;opacity:0.47;}.cls-2{fill:#603813;}.cls-3{fill:#1a1a1a;}.cls-4{fill:gray;}.cls-5{fill:#ccc;}.cls-6{fill:#e6e6e6;}.cls-7{fill:#42210b;}.cls-8{fill:#ff9a75;}.cls-9{fill:#ff9271;}.cls-10{fill:#754c24;}.cls-11{fill:#b3b3b3;}.cls-12{fill:#333;}</style></defs><title>Asset 8</title><g id="Layer_2" data-name="Layer 2"><g id="Layer_1-2" data-name="Layer 1"><ellipse class="cls-1" cx="132" cy="171.44" rx="7" ry="112.5"/><ellipse class="cls-1" cx="80" cy="341.44" rx="80" ry="9.5"/><rect class="cls-2" x="102.06" y="224.44" width="9" height="28" transform="translate(-149.61 289.27) rotate(-77.14)"/><rect class="cls-3" x="65.15" y="195.6" width="15" height="69.72" rx="5.87" transform="translate(-168.19 250) rotate(-77.14)"/><rect x="117.18" y="234.39" width="9" height="15" transform="translate(-141.22 306.68) rotate(-77.14)"/><path class="cls-4" d="M120.73,248.21h20a.84.84,0,0,1,.84.84V257a0,0,0,0,1,0,0H111.95a0,0,0,0,1,0,0v0a8.79,8.79,0,0,1,8.79-8.79Z" transform="translate(-147.72 319.97) rotate(-77.14)"/><path class="cls-5" d="M117.44,252.17H147a.48.48,0,0,1,.48.48v1.44a.84.84,0,0,1-.84.84H118.38a.94.94,0,0,1-.94-.94v-1.83a0,0,0,0,1,0,0Z" transform="translate(-144.2 326.28) rotate(-77.14)"/><circle class="cls-6" cx="128.5" cy="243.44" r="1.5"/><path class="cls-3" d="M64.58,172.92h3.92a5.28,5.28,0,0,1,5.28,5.28v59.4a5.28,5.28,0,0,1-5.28,5.28H66.18A6.89,6.89,0,0,1,59.3,236V178.2A5.28,5.28,0,0,1,64.58,172.92Z" transform="translate(204.08 38.4) rotate(56.81)"/><path class="cls-7" d="M85.42,96.19h5.79a0,0,0,0,1,0,0v34.54a0,0,0,0,1,0,0h-10a0,0,0,0,1,0,0V100.39A4.21,4.21,0,0,1,85.42,96.19Z" transform="translate(50.89 251.5) rotate(-128.42)"/><rect class="cls-7" x="54.03" y="84.31" width="9.04" height="47.51" transform="translate(-63.59 94.37) rotate(-55.15)"/><rect class="cls-7" x="21.96" y="80.61" width="23.09" height="14.12" rx="7.06" transform="translate(-10.33 170.66) rotate(-131.25)"/><path class="cls-8" d="M99.44,85.93h3a3.22,3.22,0,0,1,3.22,3.22V118a0,0,0,0,1,0,0H94.76a.14.14,0,0,1-.14-.14V90.74A4.82,4.82,0,0,1,99.44,85.93Z" transform="translate(117.82 -39.85) rotate(51.58)"/><path class="cls-9" d="M96.64,78h11.64A11.65,11.65,0,0,1,119.93,89.7V162a4,4,0,0,1-4,4h-28a4,4,0,0,1-4-4V90.76A12.71,12.71,0,0,1,96.64,78Z" transform="translate(30.86 -20.2) rotate(13.32)"/><rect class="cls-2" x="101.49" y="58.74" width="9" height="26" rx="2.32" transform="translate(-13.46 25.78) rotate(-13.05)"/><rect class="cls-7" x="77.01" y="42.06" width="5" height="8" rx="1.54" transform="translate(-8.34 19.14) rotate(-13.05)"/><path class="cls-10" d="M111.54,60.19,95.7,63.86a11.24,11.24,0,0,1-13.5-8.41l-7-30.34a6.61,6.61,0,0,1,5-7.93L104,11.64a6.85,6.85,0,0,1,8.22,5.12l7.14,30.85A10.48,10.48,0,0,1,111.54,60.19Z"/><path d="M79.75,2.61h23.45a8,8,0,0,1,8,8V22.24a4.37,4.37,0,0,1-4.37,4.37H75.59a4.37,4.37,0,0,1-4.37-4.37V11.14a8.54,8.54,0,0,1,8.54-8.54Z" transform="translate(-0.94 20.97) rotate(-13.05)"/><rect x="85.13" y="25.36" width="2" height="35" rx="1" transform="translate(-7.45 20.55) rotate(-13.04)"/><path class="cls-2" d="M78.42,111.19h5.79a0,0,0,0,1,0,0v34.54a0,0,0,0,1,0,0h-10a0,0,0,0,1,0,0V115.39a4.21,4.21,0,0,1,4.21-4.21Z" transform="translate(27.78 270.34) rotate(-128.42)"/><path class="cls-8" d="M92.44,100.93h3a3.22,3.22,0,0,1,3.22,3.22V133a0,0,0,0,1,0,0H87.76a.14.14,0,0,1-.14-.14V105.74a4.82,4.82,0,0,1,4.82-4.82Z" transform="translate(126.92 -28.69) rotate(51.58)"/><circle cx="82" cy="38.94" r="1"/><rect class="cls-2" x="47.03" y="99.31" width="9.04" height="47.51" transform="translate(-78.9 95.05) rotate(-55.15)"/><path d="M27.76,68.52h1.05a0,0,0,0,1,0,0V106a0,0,0,0,1,0,0H27.57a0,0,0,0,1,0,0V68.71a.19.19,0,0,1,.19-.19Z" transform="translate(-53.44 45.49) rotate(-45)"/><rect class="cls-11" x="22.82" y="71.41" width="6.36" height="36.06" transform="translate(-55.63 44.58) rotate(-45)"/><path d="M23.76,72.52h1.05a0,0,0,0,1,0,0V110a0,0,0,0,1,0,0H23.57a0,0,0,0,1,0,0V72.71A.19.19,0,0,1,23.76,72.52Z" transform="translate(-57.44 43.83) rotate(-45)"/><rect x="12.45" y="73.36" width="1.25" height="6.33" rx="0.46" transform="translate(60.4 14.99) rotate(47.26)"/><rect x="38.6" y="99.49" width="1.25" height="6.36" rx="0.41" transform="translate(84.09 2.33) rotate(45)"/><rect class="cls-2" x="14.96" y="95.61" width="23.09" height="14.12" rx="7.06" transform="translate(-49.16 176.95) rotate(-120)"/><path class="cls-12" d="M72.5,159.7h36a0,0,0,0,1,0,0v28.43A11.57,11.57,0,0,1,96.93,199.7H82.55A10.05,10.05,0,0,1,72.5,189.65V159.7a0,0,0,0,1,0,0Z" transform="translate(19.78 -8.67) rotate(6.15)"/><path class="cls-12" d="M76.58,184.92h3.92a5.28,5.28,0,0,1,5.28,5.28v59.4a5.28,5.28,0,0,1-5.28,5.28H78.18A6.89,6.89,0,0,1,71.3,248V190.2a5.28,5.28,0,0,1,5.28-5.28Z" transform="translate(120.47 -9.81) rotate(30)"/><rect class="cls-2" x="61" y="294.94" width="9" height="28"/><rect class="cls-12" x="58.23" y="239.25" width="15" height="69.72" rx="5.87"/><rect x="61" y="316.94" width="9" height="15"/><path class="cls-4" d="M49.91,330.86h20a.84.84,0,0,1,.84.84v7.95a0,0,0,0,1,0,0H41.12a0,0,0,0,1,0,0v0A8.79,8.79,0,0,1,49.91,330.86Z" transform="translate(11.8 -1.76) rotate(2.01)"/><path class="cls-5" d="M41.06,339.65H70.64a.48.48,0,0,1,.48.48v1.44a.84.84,0,0,1-.84.84H42a.94.94,0,0,1-.94-.94v-1.83a0,0,0,0,1,0,0Z" transform="translate(12.01 -1.76) rotate(2.01)"/><circle class="cls-6" cx="66.5" cy="335.44" r="1.5"/></g></g></svg>