<svg xmlns="http://www.w3.org/2000/svg" viewBox="0 0 424 376"><defs><style>.cls-1{fill:#12252d;stroke:#000;stroke-width:3px;}.cls-1,.cls-10{stroke-miterlimit:10;}.cls-2{fill:gray;}.cls-3{fill:#1b1464;}.cls-4{fill:#c1272d;}.cls-5{fill:#2e3192;}.cls-6{fill:#00a99d;}.cls-7{fill:#ed1c24;}.cls-8{fill:#009245;}.cls-9{fill:#ff4500;opacity:0.47;}.cls-10{fill:none;stroke:#ffa488;stroke-width:2px;}.cls-11{fill:#ff9271;}.cls-12{fill:#42210b;}.cls-13{fill:#4d4d4d;}.cls-14{fill:#666;}.cls-15{fill:#1a1a1a;}.cls-16{fill:aqua;}.cls-17{fill:#0071bc;}.cls-18{fill:red;}.cls-19{fill:#f2f2f2;}.cls-20{fill:#534741;}.cls-21{fill:#603813;}.cls-22{fill:#ff9a75;}.cls-23{fill:#754c24;}.cls-24{fill:#333;}.cls-25{fill:#ccc;}</style></defs><title>Asset 7</title><g id="Layer_2" data-name="Layer 2"><g id="Layer_1-2" data-name="Layer 1"><rect class="cls-1" x="137" y="132" width="92" height="58" rx="6.35"/><path class="cls-2" d="M134.88,190h95.66a.46.46,0,0,1,.46.46v1.66a.88.88,0,0,1-.88.88H134.88a.88.88,0,0,1-.88-.88v-1.24A.88.88,0,0,1,134.88,190Z"/><rect class="cls-3" x="143" y="139" width="19" height="1"/><rect class="cls-4" x="143" y="144" width="26" height="1"/><rect class="cls-5" x="143" y="148" width="10" height="1"/><rect class="cls-6" x="143" y="152" width="26" height="1"/><rect class="cls-7" x="143" y="156" width="34" height="1"/><rect class="cls-8" x="143" y="160" width="13" height="1"/><rect class="cls-7" x="143" y="163" width="34" height="1"/><rect class="cls-8" x="143" y="167" width="18" height="1"/><ellipse class="cls-9" cx="212" cy="366.5" rx="212" ry="9.5"/><path class="cls-10" d="M277,179h1.73a3.23,3.23,0,0,1,3.23,3.23V184a3,3,0,0,1-3,3H277a3,3,0,0,1-3-3V182A3,3,0,0,1,277,179Z"/><path class="cls-11" d="M267.9,174h8a3.09,3.09,0,0,1,3.09,3.09v14a2.9,2.9,0,0,1-2.9,2.9H267.9a2.9,2.9,0,0,1-2.9-2.9V176.9A2.9,2.9,0,0,1,267.9,174Z"/><ellipse class="cls-12" cx="272" cy="174.5" rx="5" ry="0.5"/><rect class="cls-11" x="155.23" y="7.13" width="5.58" height="55.15" transform="translate(23.95 -55.85) rotate(21.65)"/><rect class="cls-13" x="341" y="149" width="26" height="46" rx="4.34"/><circle class="cls-14" cx="354" cy="168" r="10"/><circle cx="354.5" cy="167.5" r="3.5"/><rect class="cls-13" x="74" y="150" width="26" height="46" rx="4.34"/><rect x="65" y="212" width="312" height="18"/><rect class="cls-15" x="58" y="194" width="14" height="172"/><rect class="cls-13" x="53" y="197" width="324" height="18"/><path class="cls-15" d="M58.85,193h317.3a2.85,2.85,0,0,1,2.85,2.85V202a0,0,0,0,1,0,0H54.14A1.14,1.14,0,0,1,53,200.86v-2A5.85,5.85,0,0,1,58.85,193Z"/><rect class="cls-15" x="283" y="212" width="94" height="154" rx="5.26"/><rect class="cls-13" x="291" y="240" width="78" height="18" rx="3"/><rect class="cls-13" x="291" y="267" width="78" height="18" rx="2.89"/><circle cx="329.5" cy="248.5" r="4.5"/><circle cx="329.5" cy="276.5" r="4.5"/><circle class="cls-14" cx="87" cy="169" r="10"/><circle cx="87.5" cy="168.5" r="3.5"/><rect class="cls-16" x="116" y="11" width="11" height="51"/><rect class="cls-17" x="116" y="17" width="11" height="7"/><rect class="cls-18" x="128" y="13" width="8" height="49"/><rect x="128" y="17" width="8" height="7"/><rect x="137" y="11" width="8" height="51"/><rect class="cls-19" x="138" y="17" width="6" height="10"/><rect class="cls-20" x="112" y="11" width="3" height="51"/><path class="cls-2" d="M108.78,0h0A2.22,2.22,0,0,1,111,2.22V64a0,0,0,0,1,0,0h-2.19a2.5,2.5,0,0,1-2.5-2.5v-59A2.47,2.47,0,0,1,108.78,0Z"/><path class="cls-2" d="M137,31h4a0,0,0,0,1,0,0V91a4,4,0,0,1-4,4h0a0,0,0,0,1,0,0V31A0,0,0,0,1,137,31Z" transform="translate(202 -76) rotate(90)"/><path class="cls-2" d="M173.12,1h2.19a0,0,0,0,1,0,0V62.78A2.22,2.22,0,0,1,173.09,65h0a2.47,2.47,0,0,1-2.47-2.47V3.5a2.5,2.5,0,0,1,2.5-2.5Z" transform="translate(345.93 66) rotate(180)"/><rect class="cls-17" x="148.98" y="48.99" width="5.39" height="3.16" transform="translate(29.36 -52.39) rotate(21.65)"/><path class="cls-21" d="M221.64,179.59h5.79a0,0,0,0,1,0,0v34.54a0,0,0,0,1,0,0h-10a0,0,0,0,1,0,0V183.8A4.21,4.21,0,0,1,221.64,179.59Z" transform="translate(519.45 193.43) rotate(137.83)"/><rect class="cls-22" x="203.67" y="165.98" width="11.05" height="32.1" transform="translate(486.44 176.5) rotate(137.83)"/><path class="cls-21" d="M141.9,181.59h10a0,0,0,0,1,0,0v34.54a0,0,0,0,1,0,0h-5.79a4.21,4.21,0,0,1-4.21-4.21V181.59a0,0,0,0,1,0,0Z" transform="translate(171.53 -47.15) rotate(42.17)"/><rect class="cls-22" x="154.62" y="167.98" width="11.05" height="32.1" transform="translate(165 -59.87) rotate(42.17)"/><rect class="cls-21" x="182" y="141" width="9" height="26" rx="4.5"/><path class="cls-23" d="M194.51,147H178.25A11.25,11.25,0,0,1,167,135.75V104.61A6.61,6.61,0,0,1,173.61,98h24.54a6.85,6.85,0,0,1,6.85,6.85v31.66A10.49,10.49,0,0,1,194.51,147Z"/><rect class="cls-21" x="203" y="320" width="9" height="28"/><rect x="161" y="345" width="9" height="15"/><rect class="cls-21" x="161" y="318" width="9" height="28"/><rect class="cls-24" x="158" y="253" width="15" height="87" rx="5.28"/><rect class="cls-24" x="200" y="253" width="15" height="87" rx="4.12"/><path class="cls-2" d="M165.45,355.45h0A9.55,9.55,0,0,1,175,365v0a0,0,0,0,1,0,0H157a0,0,0,0,1,0,0v-1.1A8.45,8.45,0,0,1,165.45,355.45Z"/><rect x="203" y="345" width="9" height="15"/><path class="cls-2" d="M207.45,355.45h0A9.55,9.55,0,0,1,217,365v0a0,0,0,0,1,0,0H199a0,0,0,0,1,0,0v-1.1A8.45,8.45,0,0,1,207.45,355.45Z"/><path class="cls-25" d="M157,364h18a0,0,0,0,1,0,0v2.16a.84.84,0,0,1-.84.84H157.94a.94.94,0,0,1-.94-.94V364A0,0,0,0,1,157,364Z"/><path class="cls-25" d="M199,364h18a0,0,0,0,1,0,0v2.16a.84.84,0,0,1-.84.84H199.94a.94.94,0,0,1-.94-.94V364A0,0,0,0,1,199,364Z"/><path class="cls-11" d="M169.71,159h32.64A11.65,11.65,0,0,1,214,170.65V243a4,4,0,0,1-4,4H161a4,4,0,0,1-4-4V171.71A12.71,12.71,0,0,1,169.71,159Z"/><path class="cls-11" d="M171.35,238h30.35A16.29,16.29,0,0,1,218,254.29v1.06a8.65,8.65,0,0,1-8.65,8.65H162.65a8.65,8.65,0,0,1-8.65-8.65v0A17.35,17.35,0,0,1,171.35,238Z"/><path class="cls-15" d="M184.76,360h6.3a1.94,1.94,0,0,1,1.94,1.94v.11a1.94,1.94,0,0,1-1.94,1.94h-5.81a2.24,2.24,0,0,1-2.24-2.24v0a1.76,1.76,0,0,1,1.76-1.76Z" transform="translate(550 174) rotate(90)"/><path class="cls-15" d="M214.76,361h6.3a1.94,1.94,0,0,1,1.94,1.94v.11a1.94,1.94,0,0,1-1.94,1.94h-5.81a2.24,2.24,0,0,1-2.24-2.24v0a1.76,1.76,0,0,1,1.76-1.76Z" transform="translate(581 145) rotate(90)"/><path class="cls-15" d="M156.76,361h6.3a1.94,1.94,0,0,1,1.94,1.94v.11a1.94,1.94,0,0,1-1.94,1.94h-5.81a2.24,2.24,0,0,1-2.24-2.24v0a1.76,1.76,0,0,1,1.76-1.76Z" transform="translate(523 203) rotate(90)"/><rect class="cls-24" x="152.9" y="350.69" width="31.95" height="6.32" rx="3.16" transform="translate(435.39 641.43) rotate(162.69)"/><rect class="cls-24" x="175" y="345" width="25" height="8" rx="3.71"/><rect class="cls-14" x="181" y="272" width="13" height="79" rx="3.5"/><rect class="cls-2" x="227" y="212.14" width="4" height="54.86"/><rect class="cls-15" x="223" y="209" width="12" height="7.84" rx="2.16"/><rect class="cls-2" x="140" y="212.14" width="4" height="54.86"/><rect class="cls-14" x="168" y="182" width="36" height="85"/><rect class="cls-15" x="152" y="160" width="69" height="49" rx="11.66"/><rect class="cls-15" x="134" y="264" width="104" height="24" rx="11.66"/><rect class="cls-15" x="136" y="209" width="12" height="7.84" rx="2.16"/><rect class="cls-24" x="192.9" y="350.69" width="31.95" height="6.32" rx="3.16" transform="translate(114.77 -46.13) rotate(17.31)"/><path class="cls-24" d="M186.1,352.28h3.84a1.49,1.49,0,0,1,1.49,1.49v3.35a1.49,1.49,0,0,1-1.49,1.49h-3.88a1.75,1.75,0,0,1-1.75-1.75v-2.78a1.79,1.79,0,0,1,1.79-1.79Z" transform="translate(-167.57 543.31) rotate(-90)"/><path d="M175.54,92H197a8,8,0,0,1,8,8v11.62a4.37,4.37,0,0,1-4.37,4.37H171.37a4.37,4.37,0,0,1-4.37-4.37V100.54A8.54,8.54,0,0,1,175.54,92Z"/></g></g></svg>