<svg xmlns="http://www.w3.org/2000/svg" viewBox="0 0 160 192"><defs><style>.cls-1,.cls-7{fill:#ff4500;}.cls-1{opacity:0.47;}.cls-2{fill:#333;}.cls-3{fill:#42210b;}.cls-4{fill:#603813;}.cls-5{fill:#ff9a75;}.cls-6{fill:#ff9271;}.cls-8{fill:#754c24;}.cls-9{fill:#a67c52;}.cls-10{fill:#8c6239;}.cls-11{fill:#b3b3b3;}.cls-12{fill:#4d4d4d;}</style></defs><title>Asset 9</title><g id="Layer_2" data-name="Layer 2"><g id="Layer_1-2" data-name="Layer 1"><ellipse class="cls-1" cx="80" cy="182.5" rx="80" ry="9.5"/><rect class="cls-2" x="120.6" y="152.84" width="9.17" height="32.1" transform="translate(330.73 124.83) rotate(114.45)"/><path class="cls-3" d="M105.7,139.85h2.54a1.63,1.63,0,0,1,1.63,1.63v73.43a1.63,1.63,0,0,1-1.63,1.63h-6.75a1.63,1.63,0,0,1-1.63-1.63V145.69a5.83,5.83,0,0,1,5.83-5.83Z" transform="translate(270.34 54.23) rotate(83.64)"/><rect class="cls-3" x="65.71" y="174" width="12" height="17" rx="4.58" transform="translate(136.06 367.73) rotate(-177.7)"/><rect class="cls-2" x="30.95" y="151.84" width="9.17" height="32.1" transform="translate(173.66 66.05) rotate(65.55)"/><path class="cls-4" d="M122,89.59h5.79a0,0,0,0,1,0,0v34.54a0,0,0,0,1,0,0h-10a0,0,0,0,1,0,0V93.8A4.21,4.21,0,0,1,122,89.59Z" transform="translate(285.51 103.63) rotate(137.83)"/><rect class="cls-5" x="102.01" y="73.98" width="11.05" height="32.1" transform="translate(247.68 84.57) rotate(137.83)"/><rect class="cls-4" x="114.69" y="111.06" width="9.04" height="47.51" transform="translate(151.67 311.82) rotate(-148.91)"/><path class="cls-4" d="M21.9,90.59h10a0,0,0,0,1,0,0v34.54a0,0,0,0,1,0,0H26.11a4.21,4.21,0,0,1-4.21-4.21V90.59A0,0,0,0,1,21.9,90.59Z" transform="translate(79.37 9.86) rotate(42.17)"/><rect class="cls-5" x="36.62" y="74.98" width="11.05" height="32.1" transform="translate(72.02 -4.73) rotate(42.17)"/><path class="cls-6" d="M59.71,66H92.35A11.65,11.65,0,0,1,104,77.65V150a4,4,0,0,1-4,4H51a4,4,0,0,1-4-4V78.71A12.71,12.71,0,0,1,59.71,66Z"/><rect class="cls-7" x="48" y="90" width="55" height="6"/><rect class="cls-4" x="25.95" y="112.06" width="9.04" height="47.51" transform="translate(-65.76 35.25) rotate(-31.09)"/><rect class="cls-4" x="71" y="48" width="9" height="26" rx="4.5"/><rect class="cls-4" x="93" y="22" width="5" height="10" rx="1.54"/><rect class="cls-4" x="54" y="22" width="5" height="10" rx="1.54"/><path d="M61.17,0H91.36A3.64,3.64,0,0,1,95,3.64V24a0,0,0,0,1,0,0H57a0,0,0,0,1,0,0V4.17A4.17,4.17,0,0,1,61.17,0Z"/><path class="cls-8" d="M84.51,55H68.25A11.25,11.25,0,0,1,57,43.75V12.61A6.61,6.61,0,0,1,63.61,6H88.15A6.85,6.85,0,0,1,95,12.85V44.51A10.49,10.49,0,0,1,84.51,55Z"/><rect x="88" y="5" width="2" height="35" rx="1"/><rect x="84" y="5" width="2" height="35" rx="1"/><circle cx="66" cy="29" r="1"/><rect class="cls-9" x="73" y="33" width="5" height="8" rx="1.54"/><rect class="cls-10" x="71" y="45" width="9" height="2" rx="0.66"/><rect class="cls-4" x="35.64" y="154.09" width="23.09" height="14.12" rx="7.06" transform="translate(127.77 13.84) rotate(45)"/><rect class="cls-4" x="93.17" y="152.09" width="23.09" height="14.12" rx="7.06" transform="translate(291.3 197.63) rotate(135)"/><rect class="cls-11" x="30" y="116" width="92" height="58" rx="6.35"/><circle class="cls-12" cx="75.5" cy="145.5" r="7.5"/><path class="cls-12" d="M30.88,171h90.66a.46.46,0,0,1,.46.46v1.66a.88.88,0,0,1-.88.88H30.88a.88.88,0,0,1-.88-.88v-1.24A.88.88,0,0,1,30.88,171Z"/><path class="cls-4" d="M52.47,138.85h6.75a1.63,1.63,0,0,1,1.63,1.63v73.43a1.63,1.63,0,0,1-1.63,1.63H56.68a5.83,5.83,0,0,1-5.83-5.83V140.48a1.63,1.63,0,0,1,1.63-1.63Z" transform="translate(238.14 141.32) rotate(96.36)"/><rect class="cls-4" x="83" y="173" width="12" height="17" rx="4.58" transform="translate(-7.2 3.71) rotate(-2.3)"/></g></g></svg>