<svg xmlns="http://www.w3.org/2000/svg" viewBox="0 0 515.1 414.69"><defs><style>.cls-1,.cls-12{fill:#ff9271;}.cls-1{opacity:0.18;}.cls-2{fill:#12252d;stroke:#000;stroke-width:3px;}.cls-11,.cls-2{stroke-miterlimit:10;}.cls-3{fill:gray;}.cls-4{fill:#1b1464;}.cls-5{fill:#c1272d;}.cls-6{fill:#2e3192;}.cls-7{fill:#00a99d;}.cls-8{fill:#ed1c24;}.cls-9{fill:#009245;}.cls-10{fill:#ff4500;opacity:0.28;}.cls-11{fill:none;stroke:#ffa488;stroke-width:2px;}.cls-13{fill:#42210b;}.cls-14{fill:#4d4d4d;}.cls-15{fill:#666;}.cls-16{fill:#1a1a1a;}.cls-17{fill:aqua;}.cls-18{fill:#0071bc;}.cls-19{fill:red;}.cls-20{fill:#f2f2f2;}.cls-21{fill:#534741;}.cls-22{fill:#603813;}.cls-23{fill:#ff9a75;}.cls-24{fill:#754c24;}.cls-25{fill:#333;}.cls-26{fill:#ccc;}</style></defs><title>Asset 11</title><g id="Layer_2" data-name="Layer 2"><g id="Layer_1-2" data-name="Layer 1"><path class="cls-1" d="M95.79,31.33c-14.63,15.24-5.2,22-23,54-18.65,33.58-35.81,38.46-36,60-.17,19,13.16,24.44,9,38-6,19.54-35.4,14.06-44,33-9.13,20.1,19.66,35.81,19,78-.31,19.8-6.7,19.93-7,40-.06,3.74-.18,49.7,27,72,21.71,17.82,36.54.59,125,5,38.65,1.93,50.05,5.92,77,1,19.68-3.6,29.64-8.66,51-9,24.27-.39,32.66,5.8,53,9,52.93,8.33,98.15-17.51,113-26,22.94-13.11,43.67-24.95,52-49,7.95-22.95.24-44.4-9-69-4.17-11.11-12.79-31.52-50-83-38.21-52.87-55.25-67.49-50-88,2.78-10.85,10.15-16.93,14-38,1.08-5.93,4.46-27.13-4-32-2.78-1.6-4.94-.34-11-3-5.7-2.5-5.51-4.37-10-6-6.2-2.25-8.85.48-15-1s-9.73-5.83-12-8c-12.48-11.92-45.15-12.95-65,0-14.61,9.53-10.11,18.7-23,25-8.63,4.22-18.42,3.91-56-8-39.13-12.4-35-14.14-47-16C170.89,9.88,122.9,3.09,95.79,31.33Z"/><rect class="cls-2" x="163.79" y="157.33" width="92" height="58" rx="6.35"/><path class="cls-3" d="M161.67,215.33h95.66a.46.46,0,0,1,.46.46v1.66a.88.88,0,0,1-.88.88H161.67a.88.88,0,0,1-.88-.88v-1.24A.88.88,0,0,1,161.67,215.33Z"/><rect class="cls-4" x="169.79" y="164.33" width="19" height="1"/><rect class="cls-5" x="169.79" y="169.33" width="26" height="1"/><rect class="cls-6" x="169.79" y="173.33" width="10" height="1"/><rect class="cls-7" x="169.79" y="177.33" width="26" height="1"/><rect class="cls-8" x="169.79" y="181.33" width="34" height="1"/><rect class="cls-9" x="169.79" y="185.33" width="13" height="1"/><rect class="cls-8" x="169.79" y="188.33" width="34" height="1"/><rect class="cls-9" x="169.79" y="192.33" width="18" height="1"/><ellipse class="cls-10" cx="238.79" cy="391.83" rx="212" ry="9.5"/><path class="cls-11" d="M303.83,204.33h1.73a3.23,3.23,0,0,1,3.23,3.23v1.73a3,3,0,0,1-3,3h-1.91a3,3,0,0,1-3-3v-1.91A3,3,0,0,1,303.83,204.33Z"/><path class="cls-12" d="M294.69,199.33h8a3.09,3.09,0,0,1,3.09,3.09v14a2.9,2.9,0,0,1-2.9,2.9h-8.19a2.9,2.9,0,0,1-2.9-2.9V202.23A2.9,2.9,0,0,1,294.69,199.33Z"/><ellipse class="cls-13" cx="298.79" cy="199.83" rx="5" ry="0.5"/><rect class="cls-12" x="182.02" y="32.46" width="5.58" height="55.15" transform="translate(35.19 -63.95) rotate(21.65)"/><rect class="cls-14" x="367.79" y="174.33" width="26" height="46" rx="4.34"/><circle class="cls-15" cx="380.79" cy="193.33" r="10"/><circle cx="381.29" cy="192.83" r="3.5"/><rect class="cls-14" x="100.79" y="175.33" width="26" height="46" rx="4.34"/><rect x="91.79" y="237.33" width="312" height="18"/><rect class="cls-16" x="84.79" y="219.33" width="14" height="172"/><rect class="cls-14" x="79.79" y="222.33" width="324" height="18"/><path class="cls-16" d="M85.64,218.33h317.3a2.85,2.85,0,0,1,2.85,2.85v6.15a0,0,0,0,1,0,0H80.93a1.14,1.14,0,0,1-1.14-1.14v-2a5.85,5.85,0,0,1,5.85-5.85Z"/><rect class="cls-16" x="309.79" y="237.33" width="94" height="154" rx="5.26"/><rect class="cls-14" x="317.79" y="265.33" width="78" height="18" rx="3"/><rect class="cls-14" x="317.79" y="292.33" width="78" height="18" rx="2.89"/><circle cx="356.29" cy="273.83" r="4.5"/><circle cx="356.29" cy="301.83" r="4.5"/><circle class="cls-15" cx="113.79" cy="194.33" r="10"/><circle cx="114.29" cy="193.83" r="3.5"/><rect class="cls-17" x="142.79" y="36.33" width="11" height="51"/><rect class="cls-18" x="142.79" y="42.33" width="11" height="7"/><rect class="cls-19" x="154.79" y="38.33" width="8" height="49"/><rect x="154.79" y="42.33" width="8" height="7"/><rect x="163.79" y="36.33" width="8" height="51"/><rect class="cls-20" x="164.79" y="42.33" width="6" height="10"/><rect class="cls-21" x="138.79" y="36.33" width="3" height="51"/><path class="cls-3" d="M135.57,25.33h0a2.22,2.22,0,0,1,2.22,2.22V89.33a0,0,0,0,1,0,0H135.6a2.5,2.5,0,0,1-2.5-2.5v-59a2.47,2.47,0,0,1,2.47-2.47Z"/><path class="cls-3" d="M163.79,56.33h4a0,0,0,0,1,0,0v60a4,4,0,0,1-4,4h0a0,0,0,0,1,0,0v-64A0,0,0,0,1,163.79,56.33Z" transform="translate(254.12 -77.46) rotate(90)"/><path class="cls-3" d="M199.91,26.33h2.19a0,0,0,0,1,0,0V88.11a2.22,2.22,0,0,1-2.22,2.22h0a2.47,2.47,0,0,1-2.47-2.47v-59A2.5,2.5,0,0,1,199.91,26.33Z" transform="translate(399.51 116.66) rotate(180)"/><rect class="cls-18" x="175.77" y="74.32" width="5.39" height="3.16" transform="translate(40.59 -60.49) rotate(21.65)"/><path class="cls-22" d="M248.43,204.92h5.79a0,0,0,0,1,0,0v34.54a0,0,0,0,1,0,0h-10a0,0,0,0,1,0,0V209.13A4.21,4.21,0,0,1,248.43,204.92Z" transform="translate(583.1 219.55) rotate(137.83)"/><rect class="cls-23" x="230.46" y="191.31" width="11.05" height="32.1" transform="translate(550.1 202.62) rotate(137.83)"/><path class="cls-22" d="M168.69,206.92h10a0,0,0,0,1,0,0v34.54a0,0,0,0,1,0,0H172.9a4.21,4.21,0,0,1-4.21-4.21V206.92a0,0,0,0,1,0,0Z" transform="translate(195.47 -58.58) rotate(42.17)"/><rect class="cls-23" x="181.41" y="193.31" width="11.05" height="32.1" transform="translate(188.94 -71.3) rotate(42.17)"/><rect class="cls-22" x="208.79" y="166.33" width="9" height="26" rx="4.5"/><path class="cls-24" d="M221.3,172.33H205a11.25,11.25,0,0,1-11.25-11.25V129.94a6.61,6.61,0,0,1,6.61-6.61h24.54a6.85,6.85,0,0,1,6.85,6.85v31.66A10.49,10.49,0,0,1,221.3,172.33Z"/><rect class="cls-22" x="229.79" y="345.33" width="9" height="28"/><rect x="187.79" y="370.33" width="9" height="15"/><rect class="cls-22" x="187.79" y="343.33" width="9" height="28"/><rect class="cls-25" x="184.79" y="278.33" width="15" height="87" rx="5.28"/><rect class="cls-25" x="226.79" y="278.33" width="15" height="87" rx="4.12"/><path class="cls-3" d="M192.24,380.78h0a9.55,9.55,0,0,1,9.55,9.55v0a0,0,0,0,1,0,0h-18a0,0,0,0,1,0,0v-1.1A8.45,8.45,0,0,1,192.24,380.78Z"/><rect x="229.79" y="370.33" width="9" height="15"/><path class="cls-3" d="M234.24,380.78h0a9.55,9.55,0,0,1,9.55,9.55v0a0,0,0,0,1,0,0h-18a0,0,0,0,1,0,0v-1.1A8.45,8.45,0,0,1,234.24,380.78Z"/><path class="cls-26" d="M183.79,389.33h18a0,0,0,0,1,0,0v2.16a.84.84,0,0,1-.84.84H184.73a.94.94,0,0,1-.94-.94v-2.06A0,0,0,0,1,183.79,389.33Z"/><path class="cls-26" d="M225.79,389.33h18a0,0,0,0,1,0,0v2.16a.84.84,0,0,1-.84.84H226.73a.94.94,0,0,1-.94-.94v-2.06A0,0,0,0,1,225.79,389.33Z"/><path class="cls-12" d="M196.5,184.33h32.64A11.65,11.65,0,0,1,240.79,196v72.35a4,4,0,0,1-4,4h-49a4,4,0,0,1-4-4V197A12.71,12.71,0,0,1,196.5,184.33Z"/><path class="cls-12" d="M198.14,263.33H228.5a16.29,16.29,0,0,1,16.29,16.29v1.06a8.65,8.65,0,0,1-8.65,8.65H189.44a8.65,8.65,0,0,1-8.65-8.65v0a17.35,17.35,0,0,1,17.35-17.35Z"/><path class="cls-16" d="M211.55,385.33h6.3a1.94,1.94,0,0,1,1.94,1.94v.11a1.94,1.94,0,0,1-1.94,1.94H212a2.24,2.24,0,0,1-2.24-2.24v0a1.76,1.76,0,0,1,1.76-1.76Z" transform="translate(602.12 172.54) rotate(90)"/><path class="cls-16" d="M241.55,386.33h6.3a1.94,1.94,0,0,1,1.94,1.94v.11a1.94,1.94,0,0,1-1.94,1.94H242a2.24,2.24,0,0,1-2.24-2.24v0a1.76,1.76,0,0,1,1.76-1.76Z" transform="translate(633.12 143.54) rotate(90)"/><path class="cls-16" d="M183.55,386.33h6.3a1.94,1.94,0,0,1,1.94,1.94v.11a1.94,1.94,0,0,1-1.94,1.94H184a2.24,2.24,0,0,1-2.24-2.24v0a1.76,1.76,0,0,1,1.76-1.76Z" transform="translate(575.12 201.54) rotate(90)"/><rect class="cls-25" x="179.69" y="376.02" width="31.95" height="6.32" rx="3.16" transform="translate(495.3 682.97) rotate(162.69)"/><rect class="cls-25" x="201.79" y="370.33" width="25" height="8" rx="3.71"/><rect class="cls-15" x="207.79" y="297.33" width="13" height="79" rx="3.5"/><rect class="cls-3" x="253.79" y="237.47" width="4" height="54.86"/><rect class="cls-16" x="249.79" y="234.33" width="12" height="7.84" rx="2.16"/><rect class="cls-3" x="166.79" y="237.47" width="4" height="54.86"/><rect class="cls-15" x="194.79" y="207.33" width="36" height="85"/><rect class="cls-16" x="178.79" y="185.33" width="69" height="49" rx="11.66"/><rect class="cls-16" x="160.79" y="289.33" width="104" height="24" rx="11.66"/><rect class="cls-16" x="162.79" y="234.33" width="12" height="7.84" rx="2.16"/><rect class="cls-25" x="219.69" y="376.02" width="31.95" height="6.32" rx="3.16" transform="translate(123.52 -52.95) rotate(17.31)"/><path class="cls-25" d="M212.89,377.61h3.84a1.49,1.49,0,0,1,1.49,1.49v3.35a1.49,1.49,0,0,1-1.49,1.49h-3.88a1.75,1.75,0,0,1-1.75-1.75V379.4a1.79,1.79,0,0,1,1.79-1.79Z" transform="translate(-166.11 595.43) rotate(-90)"/><path d="M202.33,117.33h21.45a8,8,0,0,1,8,8V137a4.37,4.37,0,0,1-4.37,4.37H198.16a4.37,4.37,0,0,1-4.37-4.37V125.87A8.54,8.54,0,0,1,202.33,117.33Z"/></g></g></svg>